<?xml version="1.0" encoding="UTF-8" standalone="no"?>
<!DOCTYPE svg PUBLIC "-//W3C//DTD SVG 1.1//EN" "http://www.w3.org/Graphics/SVG/1.1/DTD/svg11.dtd">
<svg width="100%" height="100%" viewBox="0 0 102 40" version="1.1" xmlns="http://www.w3.org/2000/svg" xmlns:xlink="http://www.w3.org/1999/xlink" xml:space="preserve" xmlns:serif="http://www.serif.com/" style="fill-rule:evenodd;clip-rule:evenodd;stroke-linejoin:round;stroke-miterlimit:2;">
    <g transform="matrix(1,0,0,1,-153.079,-323.953)">
        <g transform="matrix(1,0,0,1,152.364,323.953)">
            <path d="M20.716,0L20.716,0C9.744,0 0.716,9.028 0.716,20L0.716,20C0.718,24.561 2.281,28.986 5.142,32.537L2.726,37.369C2.6,37.621 2.534,37.899 2.534,38.181C2.534,39.179 3.355,40 4.353,40C4.599,40 4.842,39.95 5.068,39.853L10.844,37.378C13.852,39.091 17.254,39.995 20.716,40C31.687,40 40.715,30.972 40.715,20C40.715,9.029 31.687,0 20.716,0ZM20.742,15.909L20.716,15.909C18.458,15.909 16.625,17.742 16.625,20L16.625,31.818C16.625,34.076 18.458,35.909 20.716,35.909L20.742,35.909C22.988,35.895 24.807,34.067 24.807,31.818L24.807,20C24.807,17.751 22.988,15.924 20.742,15.909ZM20.742,5C22.988,5.014 24.807,6.842 24.807,9.091C24.807,11.34 22.988,13.168 20.742,13.182L20.716,13.182C18.458,13.182 16.625,11.349 16.625,9.091C16.625,6.833 18.458,5 20.716,5L20.742,5Z" style="fill:white;"/>
        </g>
        <g transform="matrix(1,0,0,1,152.364,323.953)">
            <path d="M87.395,28.577C86.155,28.345 85.535,27.432 85.535,25.838C85.535,24.911 85.766,24.203 86.228,23.714C86.69,23.223 87.353,22.977 88.215,22.977C88.847,22.977 89.413,23.101 89.914,23.348L89.475,24.5C89.241,24.406 89.023,24.329 88.821,24.271C88.619,24.209 88.417,24.178 88.215,24.178C87.441,24.178 87.053,24.728 87.053,25.829C87.053,26.896 87.441,27.43 88.215,27.43C88.502,27.43 88.767,27.393 89.011,27.318C89.255,27.24 89.499,27.119 89.744,26.956L89.744,28.231C89.503,28.384 89.259,28.49 89.011,28.548C88.819,28.594 88.588,28.622 88.316,28.632L88.225,28.836C88.466,28.915 88.658,29.035 88.801,29.198C88.944,29.364 89.016,29.551 89.016,29.759C89.016,30.176 88.892,30.477 88.645,30.663C88.401,30.848 88.022,30.941 87.507,30.941C87.253,30.941 87.016,30.907 86.794,30.838L86.794,30.018C86.882,30.041 86.999,30.063 87.146,30.086C87.296,30.109 87.411,30.121 87.493,30.121C87.727,30.121 87.844,30.02 87.844,29.818C87.844,29.548 87.574,29.372 87.034,29.29L87.395,28.577ZM88.316,28.632C88.241,28.635 88.164,28.636 88.083,28.636C87.836,28.636 87.607,28.616 87.395,28.577L87.415,28.538L88.357,28.538L88.316,28.632ZM83.298,28.538L83.01,27.796L82.971,27.796C82.721,28.112 82.462,28.332 82.195,28.456C81.931,28.576 81.586,28.636 81.16,28.636C80.636,28.636 80.222,28.486 79.919,28.187C79.62,27.887 79.47,27.461 79.47,26.908C79.47,26.328 79.672,25.902 80.076,25.628C80.483,25.352 81.095,25.199 81.912,25.169L82.859,25.14L82.859,24.901C82.859,24.348 82.576,24.071 82.009,24.071C81.573,24.071 81.06,24.203 80.471,24.466L79.978,23.46C80.606,23.132 81.303,22.967 82.068,22.967C82.8,22.967 83.362,23.127 83.753,23.446C84.143,23.765 84.338,24.25 84.338,24.901L84.338,28.538L83.298,28.538ZM64.226,25.799C64.226,26.688 63.992,27.383 63.523,27.884C63.054,28.385 62.402,28.636 61.565,28.636C61.041,28.636 60.579,28.522 60.178,28.294C59.778,28.063 59.47,27.733 59.256,27.303C59.041,26.874 58.933,26.372 58.933,25.799C58.933,24.907 59.166,24.214 59.632,23.719C60.097,23.224 60.752,22.977 61.594,22.977C62.118,22.977 62.581,23.091 62.981,23.319C63.382,23.547 63.689,23.874 63.904,24.3C64.119,24.727 64.226,25.226 64.226,25.799ZM101.999,25.799C101.999,26.688 101.765,27.383 101.296,27.884C100.827,28.385 100.175,28.636 99.338,28.636C98.814,28.636 98.352,28.522 97.951,28.294C97.551,28.063 97.243,27.733 97.029,27.303C96.814,26.874 96.706,26.372 96.706,25.799C96.706,24.907 96.939,24.214 97.405,23.719C97.87,23.224 98.524,22.977 99.368,22.977C99.891,22.977 100.354,23.091 100.754,23.319C101.154,23.547 101.462,23.874 101.677,24.3C101.892,24.727 101.999,25.226 101.999,25.799ZM94.47,28.538L94.182,27.796L94.143,27.796C93.892,28.112 93.634,28.332 93.367,28.456C93.103,28.576 92.758,28.636 92.331,28.636C91.807,28.636 91.394,28.486 91.091,28.187C90.792,27.887 90.642,27.461 90.642,26.908C90.642,26.328 90.844,25.902 91.247,25.628C91.654,25.352 92.266,25.199 93.083,25.169L94.031,25.14L94.031,24.901C94.031,24.348 93.747,24.071 93.181,24.071C92.745,24.071 92.232,24.203 91.643,24.466L91.15,23.46C91.778,23.132 92.475,22.967 93.24,22.967C93.972,22.967 94.534,23.127 94.924,23.446C95.315,23.765 95.51,24.25 95.51,24.901L95.51,28.538L94.47,28.538ZM74.895,28.538L73.406,28.538L73.406,25.35C73.406,24.956 73.339,24.662 73.206,24.466C73.075,24.268 72.869,24.168 72.586,24.168C72.205,24.168 71.928,24.308 71.756,24.588C71.583,24.868 71.497,25.329 71.497,25.97L71.497,28.538L70.007,28.538L70.007,23.08L71.145,23.08L71.345,23.778L71.428,23.778C71.575,23.527 71.786,23.332 72.063,23.192C72.34,23.049 72.657,22.977 73.015,22.977C73.832,22.977 74.386,23.244 74.675,23.778L74.807,23.778C74.954,23.524 75.169,23.327 75.452,23.187C75.738,23.047 76.06,22.977 76.419,22.977C77.037,22.977 77.504,23.137 77.82,23.455C78.139,23.771 78.298,24.279 78.298,24.979L78.298,28.538L76.804,28.538L76.804,25.35C76.804,24.956 76.737,24.662 76.604,24.466C76.474,24.268 76.267,24.168 75.984,24.168C75.619,24.168 75.346,24.299 75.164,24.559C74.985,24.819 74.895,25.233 74.895,25.799L74.895,28.538ZM45.613,28.538L45.613,21.4L47.127,21.4L47.127,28.538L45.613,28.538ZM53.855,28.538L52.366,28.538L52.366,25.35C52.366,24.956 52.296,24.662 52.156,24.466C52.016,24.268 51.793,24.168 51.487,24.168C51.071,24.168 50.77,24.308 50.584,24.588C50.398,24.865 50.306,25.326 50.306,25.97L50.306,28.538L48.816,28.538L48.816,23.08L49.954,23.08L50.154,23.778L50.237,23.778C50.403,23.514 50.631,23.316 50.921,23.182C51.214,23.045 51.546,22.977 51.917,22.977C52.552,22.977 53.033,23.15 53.362,23.495C53.691,23.836 53.855,24.331 53.855,24.979L53.855,28.538ZM58.416,24.198L57.127,24.198L57.127,28.538L55.638,28.538L55.638,24.198L54.817,24.198L54.817,23.48L55.638,23.08L55.638,22.679C55.638,22.057 55.791,21.603 56.097,21.317C56.403,21.03 56.892,20.887 57.566,20.887C58.081,20.887 58.538,20.964 58.938,21.117L58.557,22.211C58.258,22.116 57.981,22.069 57.727,22.069C57.516,22.069 57.363,22.132 57.268,22.259C57.174,22.383 57.127,22.542 57.127,22.738L57.127,23.08L58.416,23.08L58.416,24.198ZM68.504,22.977C68.705,22.977 68.873,22.991 69.007,23.021L68.894,24.417C68.774,24.385 68.627,24.369 68.455,24.369C67.98,24.369 67.608,24.491 67.341,24.735C67.078,24.979 66.946,25.321 66.946,25.76L66.946,28.538L65.457,28.538L65.457,23.08L66.585,23.08L66.804,23.998L66.878,23.998C67.047,23.692 67.275,23.446 67.561,23.26C67.851,23.071 68.165,22.977 68.504,22.977L68.504,22.977ZM82.859,26.009L82.283,26.029C81.85,26.042 81.527,26.12 81.316,26.263C81.104,26.406 80.999,26.624 80.999,26.917C80.999,27.337 81.239,27.547 81.721,27.547C82.066,27.547 82.341,27.448 82.546,27.249C82.755,27.051 82.859,26.787 82.859,26.458L82.859,26.009ZM94.031,26.009L93.454,26.029C93.022,26.042 92.699,26.12 92.488,26.263C92.276,26.406 92.17,26.624 92.17,26.917C92.17,27.337 92.411,27.547 92.893,27.547C93.238,27.547 93.513,27.448 93.718,27.249C93.927,27.051 94.031,26.787 94.031,26.458L94.031,26.009ZM98.225,25.799C98.225,26.34 98.313,26.748 98.489,27.025C98.668,27.302 98.957,27.44 99.358,27.44C99.755,27.44 100.04,27.303 100.212,27.03C100.388,26.753 100.476,26.343 100.476,25.799C100.476,25.259 100.388,24.854 100.212,24.583C100.036,24.313 99.748,24.178 99.348,24.178C98.951,24.178 98.664,24.313 98.489,24.583C98.313,24.85 98.225,25.256 98.225,25.799ZM60.452,25.799C60.452,26.34 60.54,26.748 60.716,27.025C60.895,27.302 61.184,27.44 61.585,27.44C61.982,27.44 62.267,27.303 62.439,27.03C62.615,26.753 62.703,26.343 62.703,25.799C62.703,25.259 62.615,24.854 62.439,24.583C62.263,24.313 61.975,24.178 61.575,24.178C61.178,24.178 60.891,24.313 60.716,24.583C60.54,24.85 60.452,25.256 60.452,25.799ZM92.502,21.966C92.402,21.966 92.304,22.01 92.209,22.098C92.118,22.183 92.052,22.313 92.009,22.489L91.282,22.489C91.317,22.017 91.451,21.647 91.682,21.38C91.916,21.113 92.226,20.98 92.61,20.98C92.743,20.98 92.873,21.008 93,21.063C93.131,21.115 93.257,21.174 93.381,21.239C93.508,21.301 93.632,21.358 93.752,21.41C93.873,21.462 93.992,21.488 94.109,21.488C94.21,21.488 94.306,21.445 94.397,21.361C94.491,21.276 94.56,21.146 94.602,20.97L95.329,20.97C95.293,21.442 95.157,21.812 94.919,22.078C94.685,22.346 94.379,22.479 94.001,22.479C93.868,22.479 93.736,22.453 93.606,22.401C93.479,22.346 93.352,22.287 93.225,22.225C93.101,22.16 92.979,22.101 92.859,22.049C92.738,21.994 92.62,21.966 92.502,21.966ZM54.607,16.818C52.908,16.818 52.058,15.885 52.058,14.02C52.058,13.092 52.29,12.384 52.752,11.896C53.214,11.405 53.877,11.159 54.739,11.159C55.371,11.159 55.937,11.283 56.438,11.53L55.999,12.682C55.765,12.588 55.546,12.512 55.344,12.453C55.143,12.391 54.941,12.36 54.739,12.36C53.964,12.36 53.577,12.91 53.577,14.01C53.577,15.078 53.964,15.612 54.739,15.612C55.026,15.612 55.291,15.575 55.535,15.5C55.779,15.422 56.023,15.301 56.267,15.138L56.267,16.413C56.027,16.566 55.782,16.672 55.535,16.73C55.291,16.789 54.982,16.818 54.607,16.818ZM72.234,15.099C72.234,15.659 72.039,16.086 71.648,16.379C71.261,16.672 70.68,16.818 69.905,16.818C69.508,16.818 69.169,16.79 68.889,16.735C68.609,16.683 68.347,16.605 68.103,16.501L68.103,15.27C68.38,15.4 68.691,15.509 69.036,15.597C69.384,15.685 69.69,15.729 69.954,15.729C70.494,15.729 70.764,15.573 70.764,15.261C70.764,15.143 70.729,15.049 70.657,14.977C70.585,14.903 70.462,14.819 70.286,14.728C70.11,14.634 69.876,14.525 69.583,14.401C69.163,14.225 68.854,14.063 68.655,13.913C68.46,13.763 68.316,13.592 68.225,13.4C68.138,13.205 68.093,12.966 68.093,12.682C68.093,12.197 68.281,11.823 68.655,11.559C69.033,11.292 69.566,11.159 70.256,11.159C70.914,11.159 71.554,11.302 72.175,11.589L71.726,12.663C71.453,12.546 71.197,12.45 70.96,12.375C70.722,12.3 70.479,12.262 70.232,12.262C69.793,12.262 69.573,12.381 69.573,12.619C69.573,12.752 69.643,12.868 69.783,12.966C69.926,13.063 70.237,13.208 70.715,13.4C71.142,13.573 71.454,13.734 71.653,13.884C71.852,14.033 71.998,14.206 72.093,14.401C72.187,14.596 72.234,14.829 72.234,15.099ZM85.662,16.72L85.374,15.978L85.334,15.978C85.084,16.294 84.825,16.514 84.558,16.637C84.294,16.758 83.949,16.818 83.523,16.818C82.999,16.818 82.586,16.668 82.283,16.369C81.983,16.069 81.833,15.643 81.833,15.09C81.833,14.51 82.035,14.084 82.439,13.81C82.846,13.534 83.458,13.381 84.275,13.351L85.222,13.322L85.222,13.083C85.222,12.53 84.939,12.253 84.373,12.253C83.936,12.253 83.424,12.384 82.834,12.648L82.341,11.642C82.97,11.314 83.666,11.149 84.431,11.149C85.163,11.149 85.725,11.309 86.116,11.628C86.506,11.947 86.702,12.432 86.702,13.083L86.702,16.72L85.662,16.72ZM67.254,15.099C67.254,15.659 67.058,16.086 66.668,16.379C66.28,16.672 65.699,16.818 64.925,16.818C64.527,16.818 64.189,16.79 63.909,16.735C63.629,16.683 63.367,16.605 63.123,16.501L63.123,15.27C63.4,15.4 63.71,15.509 64.055,15.597C64.404,15.685 64.71,15.729 64.973,15.729C65.514,15.729 65.784,15.573 65.784,15.261C65.784,15.143 65.748,15.049 65.677,14.977C65.605,14.903 65.481,14.819 65.305,14.728C65.129,14.634 64.895,14.525 64.602,14.401C64.182,14.225 63.873,14.063 63.675,13.913C63.479,13.763 63.336,13.592 63.245,13.4C63.157,13.205 63.113,12.966 63.113,12.682C63.113,12.197 63.3,11.823 63.675,11.559C64.052,11.292 64.586,11.159 65.276,11.159C65.934,11.159 66.573,11.302 67.195,11.589L66.746,12.663C66.472,12.546 66.217,12.45 65.979,12.375C65.742,12.3 65.499,12.262 65.252,12.262C64.812,12.262 64.592,12.381 64.592,12.619C64.592,12.752 64.662,12.868 64.802,12.966C64.946,13.063 65.257,13.208 65.735,13.4C66.162,13.573 66.474,13.734 66.673,13.884C66.871,14.033 67.018,14.206 67.112,14.401C67.206,14.596 67.254,14.829 67.254,15.099ZM59.998,16.818C59.119,16.818 58.432,16.576 57.937,16.091C57.443,15.606 57.195,14.919 57.195,14.03C57.195,13.115 57.423,12.409 57.879,11.911C58.338,11.41 58.971,11.159 59.778,11.159C60.55,11.159 61.15,11.379 61.58,11.818C62.01,12.258 62.224,12.865 62.224,13.639L62.224,14.362L58.704,14.362C58.72,14.785 58.846,15.116 59.08,15.353C59.314,15.591 59.643,15.71 60.066,15.71C60.395,15.71 60.706,15.676 60.999,15.607C61.292,15.539 61.598,15.43 61.917,15.28L61.917,16.432C61.656,16.563 61.378,16.659 61.082,16.72C60.786,16.786 60.424,16.818 59.998,16.818ZM78.367,13.981C78.367,14.87 78.132,15.565 77.664,16.066C77.195,16.567 76.542,16.818 75.706,16.818C75.182,16.818 74.719,16.704 74.319,16.476C73.919,16.245 73.611,15.915 73.396,15.485C73.181,15.055 73.074,14.554 73.074,13.981C73.074,13.089 73.307,12.396 73.772,11.901C74.238,11.406 74.892,11.159 75.735,11.159C76.259,11.159 76.721,11.273 77.122,11.501C77.522,11.729 77.83,12.056 78.045,12.482C78.259,12.909 78.367,13.408 78.367,13.981ZM49.983,16.72L49.466,15.021L46.863,15.021L46.346,16.72L44.715,16.72L47.234,9.553L49.085,9.553L51.614,16.72L49.983,16.72ZM85.222,14.191L84.646,14.211C84.213,14.224 83.891,14.302 83.679,14.445C83.468,14.588 83.362,14.806 83.362,15.099C83.362,15.519 83.603,15.729 84.084,15.729C84.43,15.729 84.705,15.63 84.91,15.431C85.118,15.233 85.222,14.969 85.222,14.64L85.222,14.191ZM74.592,13.981C74.592,14.522 74.68,14.93 74.856,15.207C75.035,15.483 75.325,15.622 75.725,15.622C76.122,15.622 76.407,15.485 76.58,15.212C76.756,14.935 76.843,14.525 76.843,13.981C76.843,13.441 76.756,13.036 76.58,12.765C76.404,12.495 76.116,12.36 75.715,12.36C75.318,12.36 75.032,12.495 74.856,12.765C74.68,13.032 74.592,13.438 74.592,13.981ZM49.104,13.752C48.626,12.212 48.356,11.341 48.294,11.14C48.235,10.938 48.193,10.778 48.167,10.661C48.06,11.078 47.752,12.108 47.244,13.752L49.104,13.752ZM59.788,12.219C59.472,12.219 59.225,12.319 59.046,12.521C58.867,12.72 58.764,13.003 58.738,13.371L60.828,13.371C60.821,13.003 60.725,12.72 60.54,12.521C60.354,12.319 60.104,12.219 59.788,12.219ZM84.412,10.661C84.207,10.518 83.905,10.287 83.508,9.968C83.111,9.645 82.802,9.377 82.581,9.162L82.581,9.059L84.25,9.059C84.456,9.388 84.838,9.878 85.398,10.529L85.398,10.661L84.412,10.661Z" style="fill:white;fill-rule:nonzero;"/>
        </g>
    </g>
</svg>
